<svg width="74" height="125" viewBox="0 0 74 125" fill="none" xmlns="http://www.w3.org/2000/svg">
<path d="M1.0144 103.8V74.4558H71.9668V103.8L37.3666 122.633L1.0144 103.8Z" fill="white"/>
<path d="M71.8391 74.7009V103.888L37.0989 122.684L1.63892 103.88V74.7009H71.8391Z" stroke="#131313" stroke-width="3"/>
<rect x="0.138916" width="73.2004" height="73.2004" fill="#131313"/>
<path d="M66.4339 111.264V112.828H65.7832V111.264H65.0778V110.634H67.1466V111.264H66.4339ZM69.3856 112.828V111.924L68.8932 112.804H68.601L68.1086 111.924V112.828H67.4579V110.634H68.0113L68.7476 111.96L69.4839 110.634H70.0373V112.828H69.3856Z" fill="#131313"/>
<path d="M16.5687 11.1499V12.1398C16.5687 13.9734 15.9844 15.4588 14.8157 16.595C13.6471 17.7321 12.1317 18.3007 10.2877 18.3007C8.31534 18.3007 6.67249 17.659 5.37642 16.3756C4.08034 15.074 3.44141 13.4972 3.44141 11.6453C3.44141 9.79338 4.08034 8.19833 5.35821 6.89669C6.65429 5.59505 8.24253 4.95337 10.1411 4.95337C12.533 4.95337 14.6146 6.12704 15.7095 7.94239L13.5552 9.18918C12.9526 8.1444 11.6384 7.4104 10.1229 7.4104C8.89967 7.4104 7.89575 7.8135 7.11028 8.62063C6.32572 9.40947 5.94163 10.4177 5.94163 11.6462C5.94163 12.8747 6.34301 13.8647 7.12849 14.6535C7.93216 15.4414 8.99068 15.8272 10.305 15.8272C12.2582 15.8272 13.5725 14.9104 14.0294 13.3884H10.1593V11.1517H16.5678L16.5687 11.1499Z" fill="white"/>
<path d="M20.3414 10.4533C20.7573 9.27968 21.7985 8.69284 22.9781 8.69284V11.3336C22.3018 11.2422 21.6775 11.3884 21.1396 11.7742C20.6017 12.159 20.3414 12.7824 20.3414 13.6627V18.0447H18.1042V8.87657H20.3414V10.4533Z" fill="white"/>
<path d="M26.7571 14.4323C27.0675 15.5877 27.9258 16.1562 29.3311 16.1562C30.2257 16.1562 30.9193 15.8445 31.3762 15.2394L33.2748 16.3391C32.3801 17.6407 31.0476 18.3007 29.2946 18.3007C27.7792 18.3007 26.5742 17.8418 25.6613 16.9259C24.7484 16.0091 24.2915 14.8537 24.2915 13.4606C24.2915 12.0676 24.7484 10.9305 25.6431 10.0137C26.5378 9.07858 27.7064 8.61972 29.1117 8.61972C30.4442 8.61972 31.5582 9.07858 32.4165 10.0137C33.293 10.9488 33.7308 12.0859 33.7308 13.4606C33.7308 13.7723 33.6944 14.084 33.6398 14.4323H26.7571ZM31.3762 12.5987C31.1022 11.3519 30.1893 10.7468 29.1126 10.7468C27.8529 10.7468 26.9947 11.425 26.7207 12.5987H31.3762Z" fill="white"/>
<path d="M42.2217 8.87657H44.5772V18.0447H42.2217V16.9625C41.51 17.861 40.5243 18.3007 39.2455 18.3007C37.9667 18.3007 36.9819 17.8418 36.1054 16.9067C35.2471 15.9716 34.8093 14.8162 34.8093 13.4597C34.8093 12.1032 35.248 10.9661 36.1054 10.031C36.9819 9.09595 38.0222 8.6188 39.2455 8.6188C40.4688 8.6188 41.5091 9.05847 42.2217 9.957V8.87566V8.87657ZM39.6842 16.0456C40.4151 16.0456 41.0167 15.8071 41.4918 15.3308C41.9842 14.8354 42.2217 14.212 42.2217 13.4606C42.2217 12.7093 41.9842 12.0859 41.4918 11.6087C41.0167 11.1133 40.4151 10.8756 39.6842 10.8756C38.9533 10.8756 38.3517 11.1142 37.8766 11.6087C37.4015 12.0859 37.1648 12.7093 37.1648 13.4606C37.1648 14.212 37.4024 14.8354 37.8766 15.3308C38.3508 15.8071 38.9533 16.0456 39.6842 16.0456Z" fill="white"/>
<path d="M52.3009 11.1499H50.2376V14.9634C50.2376 15.9533 50.9493 15.9716 52.3009 15.8985V18.0438C49.0689 18.4104 47.882 17.4753 47.882 14.9634V11.1499H46.2938V8.87657H47.882V7.02466L50.2376 6.30985V8.87657H52.3009V11.1499Z" fill="white"/>
<path d="M9.8872 21.3299C11.1105 21.3299 12.1508 21.7513 12.9909 22.5767C13.8309 23.4021 14.2505 24.4286 14.2505 25.6388C14.2505 26.8491 13.8309 27.8756 12.9909 28.701C12.1508 29.5264 11.1105 29.9478 9.8872 29.9478H7.64182V34.1653H5.12248V21.3299H9.88811H9.8872ZM9.8872 27.5822C10.9639 27.5822 11.7494 26.7385 11.7494 25.6388C11.7494 24.5392 10.9648 23.6955 9.8872 23.6955H7.64182V27.5822H9.8872Z" fill="white"/>
<path d="M18.3226 21.4487H15.9671V34.1653H18.3226V21.4487Z" fill="white"/>
<path d="M27.7801 24.9972H30.1356V34.1644H27.7801V33.0821C27.0684 33.9807 26.0827 34.4203 24.8039 34.4203C23.5251 34.4203 22.5403 33.9615 21.6638 33.0273C20.8055 32.0922 20.3678 30.9368 20.3678 29.5803C20.3678 28.2238 20.8055 27.0867 21.6638 26.1516C22.5403 25.2165 23.5806 24.7394 24.8039 24.7394C26.0272 24.7394 27.0675 25.1791 27.7801 26.0776V24.9962V24.9972ZM25.2426 32.1662C25.9735 32.1662 26.5751 31.9277 27.0502 31.4514C27.5426 30.956 27.7801 30.3326 27.7801 29.5812C27.7801 28.8299 27.5426 28.2065 27.0502 27.7293C26.5751 27.2339 25.9735 26.9962 25.2426 26.9962C24.5117 26.9962 23.9101 27.2348 23.435 27.7293C22.9599 28.2065 22.7233 28.8299 22.7233 29.5812C22.7233 30.3326 22.9608 30.956 23.435 31.4514C23.9092 31.9277 24.5126 32.1662 25.2426 32.1662Z" fill="white"/>
<path d="M33.5324 33.0282C32.6195 32.0931 32.1626 30.956 32.1626 29.5812C32.1626 28.2065 32.6195 27.0694 33.5324 26.1343C34.4635 25.1992 35.6139 24.7412 36.9828 24.7412C38.754 24.7412 40.324 25.658 41.0722 27.1068L39.0462 28.2988C38.6812 27.5474 37.8957 27.0703 36.9646 27.0703C35.5593 27.0703 34.5181 28.1151 34.5181 29.5822C34.5181 30.297 34.7556 30.9021 35.2116 31.3792C35.6676 31.8372 36.252 32.0757 36.9646 32.0757C37.9139 32.0757 38.6994 31.6169 39.0644 30.8655L41.1095 32.0392C40.3067 33.488 38.754 34.4231 36.9837 34.4231C35.6148 34.4231 34.4644 33.9642 33.5333 33.0291" fill="white"/>
<path d="M44.8703 30.5529C45.1807 31.7083 46.039 32.2768 47.4443 32.2768C48.3389 32.2768 49.0325 31.9651 49.4894 31.36L51.388 32.4597C50.4933 33.7613 49.1608 34.4213 47.4078 34.4213C45.8924 34.4213 44.6874 33.9624 43.7745 33.0465C42.8616 32.1297 42.4047 30.9743 42.4047 29.5812C42.4047 28.1882 42.8616 27.0511 43.7563 26.1343C44.651 25.1992 45.8196 24.7403 47.2249 24.7403C48.5574 24.7403 49.6714 25.1983 50.5297 26.1343C51.4062 27.0694 51.844 28.2065 51.844 29.5812C51.844 29.8929 51.8076 30.2046 51.753 30.5529H44.8703ZM49.4894 28.7193C49.2154 27.4725 48.3025 26.8674 47.2258 26.8674C45.9661 26.8674 45.1079 27.5456 44.8339 28.7193H49.4894Z" fill="white"/>
<path d="M12.8443 38.0913V40.3911H9.39389V50.285H6.87455V40.3911H3.44141V38.0913H12.8443Z" fill="white"/>
<path d="M16.769 50.5418C15.4183 50.5418 14.2678 50.083 13.3367 49.1479C12.4056 48.2128 11.9487 47.0574 11.9487 45.7009C11.9487 44.3444 12.4056 43.2073 13.3367 42.2722C14.2678 41.3371 15.4183 40.86 16.769 40.86C18.1196 40.86 19.2701 41.3362 20.2012 42.2722C21.1323 43.2073 21.6074 44.3444 21.6074 45.7009C21.6074 47.0574 21.1332 48.2128 20.2012 49.1479C19.2701 50.083 18.1196 50.5418 16.769 50.5418ZM16.769 48.2311C17.4807 48.2311 18.065 47.9925 18.5401 47.5163C19.0143 47.0391 19.2519 46.434 19.2519 45.7009C19.2519 44.9678 19.0143 44.3627 18.5401 43.8856C18.065 43.4093 17.4816 43.1708 16.769 43.1708C16.0563 43.1708 15.4729 43.4093 14.9978 43.8856C14.5409 44.3627 14.3042 44.9669 14.3042 45.7009C14.3042 46.4349 14.5418 47.0391 14.9978 47.5163C15.472 47.9925 16.0563 48.2311 16.769 48.2311Z" fill="white"/>
<path d="M7.36604 67.156L3.78727 54.3206H6.43403L8.88055 63.837L11.5464 54.3206H13.7008L16.3849 63.837L18.8314 54.3206H21.4782L17.9003 67.156H15.0333L12.6232 58.6844L10.2321 67.156H7.36604Z" fill="white"/>
<path d="M26.0809 67.4129C24.7302 67.4129 23.5797 66.954 22.6486 66.0189C21.7175 65.0838 21.2606 63.9285 21.2606 62.572C21.2606 61.2155 21.7175 60.0784 22.6486 59.1433C23.5797 58.2082 24.7302 57.731 26.0809 57.731C27.4315 57.731 28.582 58.2073 29.5131 59.1433C30.4442 60.0784 30.9193 61.2155 30.9193 62.572C30.9193 63.9285 30.4451 65.0838 29.5131 66.0189C28.582 66.954 27.4315 67.4129 26.0809 67.4129ZM26.0809 65.1021C26.7926 65.1021 27.3769 64.8635 27.852 64.3873C28.3262 63.9102 28.5638 63.306 28.5638 62.572C28.5638 61.838 28.3262 61.2338 27.852 60.7566C27.3769 60.2804 26.7935 60.0418 26.0809 60.0418C25.3682 60.0418 24.7848 60.2804 24.3097 60.7566C23.8528 61.2338 23.6161 61.838 23.6161 62.572C23.6161 63.306 23.8537 63.9102 24.3097 64.3873C24.7839 64.8635 25.3682 65.1021 26.0809 65.1021Z" fill="white"/>
<path d="M34.9359 59.5647C35.3736 58.391 36.4695 57.8042 37.7109 57.8042V60.4449C36.9983 60.3535 36.3411 60.4998 35.775 60.8855C35.2089 61.2703 34.9349 61.8937 34.9349 62.774V67.156H32.5794V57.9879H34.9349V59.5647H34.9359Z" fill="white"/>
<path d="M47.8629 67.156H45.1242L41.8012 62.9934V67.156H39.4466V54.3206H41.8012V62.0217L44.9413 57.9879H47.7528L44.0839 62.5171L47.8629 67.156Z" fill="white"/>
<path d="M48.7221 65.5034C48.7221 64.3544 49.6332 63.4303 50.7864 63.4303C51.9396 63.4303 52.8506 64.3453 52.8506 65.4943C52.8506 66.6432 51.9396 67.5582 50.7864 67.5582C49.6332 67.5582 48.7221 66.6707 48.7221 65.5034ZM52.4784 65.4943C52.4784 64.476 51.7712 63.7667 50.7864 63.7667C49.8016 63.7667 49.0935 64.486 49.0935 65.5034C49.0935 66.5208 49.8371 67.2219 50.7864 67.2219C51.7357 67.2219 52.4784 66.5125 52.4784 65.4943ZM50.0792 64.4486H50.7955C51.2697 64.4486 51.5764 64.6451 51.5764 65.0646V65.0738C51.5764 65.3818 51.3998 65.55 51.1577 65.625L51.6975 66.4933H51.2324L50.7391 65.6999H50.5252V66.4933H50.0792V64.4486ZM50.7864 65.3919C51.0185 65.3919 51.1395 65.2895 51.1395 65.093V65.0838C51.1395 64.869 51.0094 64.7941 50.7864 64.7941H50.5261V65.3919H50.7864Z" fill="white"/>
<path d="M6.4131 84.528C6.4131 81.5628 8.60204 79.2629 11.6556 79.2629C13.4996 79.2629 15.127 80.2035 15.9908 81.6496L14.2769 82.6478C13.7873 81.7511 12.8079 81.2008 11.6556 81.2008C9.68241 81.2008 8.38633 82.5746 8.38633 84.528C8.38633 86.4814 9.68241 87.8406 11.6556 87.8406C12.8079 87.8406 13.8018 87.2912 14.2769 86.4082L15.9908 87.4064C15.1407 88.8534 13.5133 89.7931 11.6556 89.7931C8.60204 89.7931 6.4131 87.4786 6.4131 84.528Z" fill="#131313"/>
<path d="M20.3696 88.1002C21.0895 88.1002 21.6656 87.7967 21.9824 87.3772L23.4805 88.2455C22.8034 89.2291 21.723 89.7931 20.3404 89.7931C17.9203 89.7931 16.394 88.1294 16.394 85.9741C16.394 83.8187 17.9349 82.1551 20.1966 82.1551C22.3282 82.1551 23.8409 83.8479 23.8409 85.9741C23.8409 86.2492 23.8118 86.4951 23.769 86.741H18.339C18.5984 87.6962 19.3902 88.1011 20.3696 88.1011V88.1002ZM21.9824 85.294C21.7521 84.2529 20.9739 83.8333 20.1966 83.8333C19.2027 83.8333 18.5256 84.369 18.3099 85.294H21.9824Z" fill="#131313"/>
<path d="M28.825 82.2127V84.2958C27.8602 84.1797 26.6361 84.6139 26.6361 86.1331V89.5901H24.7784V82.3571H26.6361V83.6011C27.0101 82.6176 27.9176 82.2127 28.825 82.2127Z" fill="#131313"/>
<path d="M32.8143 84.1514V87.1605C32.8143 87.9421 33.3758 87.9558 34.4416 87.8982V89.5911C31.8349 89.8808 30.9557 89.1139 30.9557 87.1605V84.1514H29.7024V82.358H30.9557V80.8973L32.8133 80.3333V82.3589H34.4407V84.1523H32.8133L32.8143 84.1514Z" fill="#131313"/>
<path d="M35.6085 80.347C35.6085 79.7255 36.1273 79.1898 36.7462 79.1898C37.3651 79.1898 37.8984 79.7255 37.8984 80.347C37.8984 80.9686 37.3797 81.4896 36.7462 81.4896C36.1127 81.4896 35.6085 80.9686 35.6085 80.347ZM35.8242 82.358H37.6818V89.5911H35.8242V82.358Z" fill="#131313"/>
<path d="M41.7585 82.2858V82.358H43.2857V84.1514H41.7585V89.5901H39.9008V84.1514H38.8641V82.358H39.9008V82.2858C39.9008 80.2894 40.9957 79.1176 43.2857 79.2629V81.0563C42.3209 80.9841 41.7585 81.3022 41.7585 82.2858Z" fill="#131313"/>
<path d="M44.2359 80.347C44.2359 79.7255 44.7547 79.1898 45.3736 79.1898C45.9925 79.1898 46.5259 79.7255 46.5259 80.347C46.5259 80.9686 46.0071 81.4896 45.3736 81.4896C44.7402 81.4896 44.2359 80.9686 44.2359 80.347ZM44.4516 82.358H46.3093V89.5911H44.4516V82.358Z" fill="#131313"/>
<path d="M51.4372 88.1002C52.1571 88.1002 52.7332 87.7967 53.05 87.3772L54.5481 88.2455C53.8709 89.2291 52.7906 89.7931 51.408 89.7931C48.9879 89.7931 47.4616 88.1294 47.4616 85.9741C47.4616 83.8187 49.0025 82.1551 51.2642 82.1551C53.3958 82.1551 54.9085 83.8479 54.9085 85.9741C54.9085 86.2492 54.8794 86.4951 54.8366 86.741H49.4066C49.666 87.6962 50.4578 88.1011 51.4372 88.1011V88.1002ZM53.05 85.294C52.8197 84.2529 52.0415 83.8333 51.2642 83.8333C50.2703 83.8333 49.5932 84.369 49.3774 85.294H53.05Z" fill="#131313"/>
<path d="M63.3057 89.5911H61.4481V88.7373C60.9293 89.4027 60.1665 89.7931 59.1144 89.7931C57.1839 89.7931 55.6002 88.1294 55.6002 85.9741C55.6002 83.8187 57.1848 82.1551 59.1144 82.1551C60.1656 82.1551 60.9293 82.5454 61.4481 83.2108V79.464H63.3057V89.5911ZM61.4481 85.9741C61.4481 84.7593 60.598 83.9348 59.4603 83.9348C58.3225 83.9348 57.4579 84.7593 57.4579 85.9741C57.4579 87.1889 58.308 88.0134 59.4603 88.0134C60.6125 88.0134 61.4481 87.1889 61.4481 85.9741Z" fill="#131313"/>
<path d="M4.49997 101.036V96.456H5.39591L7.26246 99.5146V96.456H8.11796V101.036H7.19402L5.35547 98.0494V101.036H4.49997Z" fill="#131313"/>
<path d="M8.90814 98.7742C8.90814 98.3076 8.97761 97.9161 9.11657 97.5995C9.22026 97.3662 9.36129 97.1569 9.53965 96.9715C9.72009 96.7861 9.91711 96.6486 10.1307 96.5591C10.4149 96.4383 10.7425 96.3779 11.1138 96.3779C11.7857 96.3779 12.3229 96.5872 12.7252 97.0059C13.1297 97.4245 13.3319 98.0067 13.3319 98.7523C13.3319 99.4917 13.1317 100.071 12.7315 100.489C12.3312 100.906 11.7961 101.114 11.1262 101.114C10.448 101.114 9.90881 100.907 9.50854 100.493C9.10827 100.076 8.90814 99.5032 8.90814 98.7742ZM9.85697 98.7429C9.85697 99.2616 9.97622 99.6552 10.2147 99.9239C10.4532 100.191 10.756 100.324 11.1231 100.324C11.4902 100.324 11.7909 100.192 12.0253 99.927C12.2617 99.6604 12.3799 99.2616 12.3799 98.7304C12.3799 98.2056 12.2648 97.814 12.0346 97.5557C11.8065 97.2974 11.5026 97.1683 11.1231 97.1683C10.7436 97.1683 10.4377 97.2995 10.2054 97.562C9.97311 97.8223 9.85697 98.216 9.85697 98.7429Z" fill="#131313"/>
<path d="M15.2171 101.036L13.587 96.456H14.5856L15.7397 99.8458L16.8565 96.456H17.8334L16.2001 101.036H15.2171Z" fill="#131313"/>
<path d="M22.8357 100.221V101.036H19.7715C19.8046 100.728 19.9042 100.436 20.0701 100.161C20.236 99.8843 20.5637 99.5178 21.0532 99.0616C21.4472 98.693 21.6888 98.443 21.778 98.3118C21.8983 98.1306 21.9584 97.9515 21.9584 97.7744C21.9584 97.5786 21.9055 97.4287 21.7998 97.3245C21.6961 97.2183 21.5519 97.1652 21.3674 97.1652C21.1848 97.1652 21.0397 97.2204 20.9318 97.3308C20.824 97.4412 20.7618 97.6245 20.7452 97.8806L19.8741 97.7932C19.926 97.3099 20.0888 96.9632 20.3625 96.7528C20.6363 96.5424 20.9785 96.4372 21.3891 96.4372C21.8392 96.4372 22.1928 96.5591 22.45 96.8028C22.7071 97.0465 22.8357 97.3495 22.8357 97.7119C22.8357 97.9181 22.7984 98.115 22.7237 98.3024C22.6511 98.4878 22.535 98.6825 22.3753 98.8867C22.2695 99.022 22.0787 99.2168 21.8029 99.4709C21.5271 99.725 21.3518 99.8937 21.2771 99.977C21.2046 100.06 21.1454 100.142 21.0998 100.221H22.8357Z" fill="#131313"/>
<path d="M24.9076 96.4372C25.3493 96.4372 25.6946 96.5955 25.9435 96.9121C26.2401 97.287 26.3884 97.9088 26.3884 98.7773C26.3884 99.6438 26.2391 100.267 25.9404 100.646C25.6936 100.958 25.3493 101.114 24.9076 101.114C24.4638 101.114 24.106 100.943 23.8343 100.602C23.5626 100.258 23.4268 99.6469 23.4268 98.7679C23.4268 97.9056 23.5761 97.285 23.8748 96.9059C24.1216 96.5934 24.4658 96.4372 24.9076 96.4372ZM24.9076 97.1652C24.8018 97.1652 24.7074 97.1996 24.6245 97.2683C24.5415 97.3349 24.4772 97.4557 24.4316 97.6307C24.3715 97.8577 24.3414 98.2399 24.3414 98.7773C24.3414 99.3147 24.3684 99.6844 24.4223 99.8864C24.4762 100.086 24.5436 100.22 24.6245 100.286C24.7074 100.353 24.8018 100.386 24.9076 100.386C25.0133 100.386 25.1077 100.353 25.1907 100.286C25.2736 100.218 25.3379 100.096 25.3835 99.9208C25.4437 99.6958 25.4738 99.3147 25.4738 98.7773C25.4738 98.2399 25.4468 97.8713 25.3929 97.6713C25.339 97.4693 25.2705 97.3349 25.1876 97.2683C25.1067 97.1996 25.0133 97.1652 24.9076 97.1652Z" fill="#131313"/>
<path d="M29.9286 100.221V101.036H26.8643C26.8975 100.728 26.9971 100.436 27.163 100.161C27.3289 99.8843 27.6566 99.5178 28.146 99.0616C28.5401 98.693 28.7817 98.443 28.8709 98.3118C28.9912 98.1306 29.0513 97.9515 29.0513 97.7744C29.0513 97.5786 28.9984 97.4287 28.8927 97.3245C28.789 97.2183 28.6448 97.1652 28.4602 97.1652C28.2777 97.1652 28.1326 97.2204 28.0247 97.3308C27.9169 97.4412 27.8547 97.6245 27.8381 97.8806L26.967 97.7932C27.0189 97.3099 27.1817 96.9632 27.4554 96.7528C27.7292 96.5424 28.0714 96.4372 28.482 96.4372C28.9321 96.4372 29.2857 96.5591 29.5428 96.8028C29.8 97.0465 29.9286 97.3495 29.9286 97.7119C29.9286 97.9181 29.8913 98.115 29.8166 98.3024C29.744 98.4878 29.6279 98.6825 29.4682 98.8867C29.3624 99.022 29.1716 99.2168 28.8958 99.4709C28.6199 99.725 28.4447 99.8937 28.37 99.977C28.2974 100.06 28.2383 100.142 28.1927 100.221H29.9286Z" fill="#131313"/>
<path d="M33.475 100.221V101.036H30.4108C30.444 100.728 30.5435 100.436 30.7094 100.161C30.8754 99.8843 31.203 99.5178 31.6925 99.0616C32.0865 98.693 32.3282 98.443 32.4173 98.3118C32.5376 98.1306 32.5978 97.9515 32.5978 97.7744C32.5978 97.5786 32.5449 97.4287 32.4391 97.3245C32.3354 97.2183 32.1913 97.1652 32.0067 97.1652C31.8242 97.1652 31.679 97.2204 31.5712 97.3308C31.4633 97.4412 31.4011 97.6245 31.3845 97.8806L30.5135 97.7932C30.5653 97.3099 30.7281 96.9632 31.0019 96.7528C31.2756 96.5424 31.6178 96.4372 32.0285 96.4372C32.4785 96.4372 32.8321 96.5591 33.0893 96.8028C33.3465 97.0465 33.475 97.3495 33.475 97.7119C33.475 97.9181 33.4377 98.115 33.363 98.3024C33.2905 98.4878 33.1743 98.6825 33.0146 98.8867C32.9089 99.022 32.7181 99.2168 32.4422 99.4709C32.1664 99.725 31.9911 99.8937 31.9165 99.977C31.8439 100.06 31.7848 100.142 31.7392 100.221H33.475Z" fill="#131313"/>
<path d="M34.1563 99.8146V98.9367H35.8736V99.8146H34.1563Z" fill="#131313"/>
<path d="M36.3931 101.036V96.456H37.289L39.1556 99.5146V96.456H40.0111V101.036H39.0871L37.2486 98.0494V101.036H36.3931Z" fill="#131313"/>
<path d="M40.8013 98.7742C40.8013 98.3076 40.8707 97.9161 41.0097 97.5995C41.1134 97.3662 41.2544 97.1569 41.4328 96.9715C41.6132 96.7861 41.8102 96.6486 42.0238 96.5591C42.308 96.4383 42.6357 96.3779 43.0069 96.3779C43.6788 96.3779 44.216 96.5872 44.6183 97.0059C45.0228 97.4245 45.225 98.0067 45.225 98.7523C45.225 99.4917 45.0248 100.071 44.6246 100.489C44.2243 100.906 43.6892 101.114 43.0193 101.114C42.3412 101.114 41.8019 100.907 41.4017 100.493C41.0014 100.076 40.8013 99.5032 40.8013 98.7742ZM41.7501 98.7429C41.7501 99.2616 41.8693 99.6552 42.1078 99.9239C42.3463 100.191 42.6491 100.324 43.0162 100.324C43.3833 100.324 43.684 100.192 43.9184 99.927C44.1548 99.6604 44.273 99.2616 44.273 98.7304C44.273 98.2056 44.1579 97.814 43.9277 97.5557C43.6996 97.2974 43.3958 97.1683 43.0162 97.1683C42.6367 97.1683 42.3308 97.2995 42.0985 97.562C41.8662 97.8223 41.7501 98.216 41.7501 98.7429Z" fill="#131313"/>
<path d="M47.1102 101.036L45.4801 96.456H46.4787L47.6328 99.8458L48.7496 96.456H49.7265L48.0932 101.036H47.1102Z" fill="#131313"/>
<path d="M54.7288 100.221V101.036H51.6646C51.6978 100.728 51.7973 100.436 51.9632 100.161C52.1291 99.8843 52.4568 99.5178 52.9463 99.0616C53.3403 98.693 53.5819 98.443 53.6711 98.3118C53.7914 98.1306 53.8515 97.9515 53.8515 97.7744C53.8515 97.5786 53.7987 97.4287 53.6929 97.3245C53.5892 97.2183 53.4451 97.1652 53.2605 97.1652C53.078 97.1652 52.9328 97.2204 52.8249 97.3308C52.7171 97.4412 52.6549 97.6245 52.6383 97.8806L51.7672 97.7932C51.8191 97.3099 51.9819 96.9632 52.2556 96.7528C52.5294 96.5424 52.8716 96.4372 53.2822 96.4372C53.7323 96.4372 54.0859 96.5591 54.3431 96.8028C54.6002 97.0465 54.7288 97.3495 54.7288 97.7119C54.7288 97.9181 54.6915 98.115 54.6168 98.3024C54.5442 98.4878 54.4281 98.6825 54.2684 98.8867C54.1626 99.022 53.9718 99.2168 53.696 99.4709C53.4202 99.725 53.2449 99.8937 53.1703 99.977C53.0977 100.06 53.0386 100.142 52.9929 100.221H54.7288Z" fill="#131313"/>
<path d="M56.8007 96.4372C57.2424 96.4372 57.5878 96.5955 57.8366 96.9121C58.1332 97.287 58.2815 97.9088 58.2815 98.7773C58.2815 99.6438 58.1322 100.267 57.8335 100.646C57.5867 100.958 57.2424 101.114 56.8007 101.114C56.3569 101.114 55.9991 100.943 55.7274 100.602C55.4557 100.258 55.3199 99.6469 55.3199 98.7679C55.3199 97.9056 55.4692 97.285 55.7679 96.9059C56.0147 96.5934 56.3589 96.4372 56.8007 96.4372ZM56.8007 97.1652C56.6949 97.1652 56.6006 97.1996 56.5176 97.2683C56.4346 97.3349 56.3703 97.4557 56.3247 97.6307C56.2646 97.8577 56.2345 98.2399 56.2345 98.7773C56.2345 99.3147 56.2615 99.6844 56.3154 99.8864C56.3693 100.086 56.4367 100.22 56.5176 100.286C56.6006 100.353 56.6949 100.386 56.8007 100.386C56.9065 100.386 57.0008 100.353 57.0838 100.286C57.1667 100.218 57.231 100.096 57.2767 99.9208C57.3368 99.6958 57.3669 99.3147 57.3669 98.7773C57.3669 98.2399 57.3399 97.8713 57.286 97.6713C57.2321 97.4693 57.1636 97.3349 57.0807 97.2683C56.9998 97.1996 56.9065 97.1652 56.8007 97.1652Z" fill="#131313"/>
<path d="M61.8217 100.221V101.036H58.7575C58.7906 100.728 58.8902 100.436 59.0561 100.161C59.222 99.8843 59.5497 99.5178 60.0392 99.0616C60.4332 98.693 60.6748 98.443 60.764 98.3118C60.8843 98.1306 60.9444 97.9515 60.9444 97.7744C60.9444 97.5786 60.8915 97.4287 60.7858 97.3245C60.6821 97.2183 60.5379 97.1652 60.3534 97.1652C60.1709 97.1652 60.0257 97.2204 59.9178 97.3308C59.81 97.4412 59.7478 97.6245 59.7312 97.8806L58.8601 97.7932C58.912 97.3099 59.0748 96.9632 59.3485 96.7528C59.6223 96.5424 59.9645 96.4372 60.3751 96.4372C60.8252 96.4372 61.1788 96.5591 61.436 96.8028C61.6931 97.0465 61.8217 97.3495 61.8217 97.7119C61.8217 97.9181 61.7844 98.115 61.7097 98.3024C61.6371 98.4878 61.521 98.6825 61.3613 98.8867C61.2555 99.022 61.0647 99.2168 60.7889 99.4709C60.5131 99.725 60.3378 99.8937 60.2631 99.977C60.1906 100.06 60.1314 100.142 60.0858 100.221H61.8217Z" fill="#131313"/>
<path d="M62.3848 99.8208L63.231 99.7177C63.2579 99.9343 63.3305 100.1 63.4487 100.214C63.5669 100.329 63.71 100.386 63.878 100.386C64.0585 100.386 64.2099 100.318 64.3322 100.18C64.4567 100.043 64.5189 99.8573 64.5189 99.624C64.5189 99.4032 64.4598 99.2282 64.3416 99.0991C64.2233 98.97 64.0792 98.9054 63.9091 98.9054C63.7971 98.9054 63.6634 98.9273 63.5078 98.971L63.6043 98.2556C63.8407 98.2618 64.0211 98.2108 64.1456 98.1025C64.27 97.9921 64.3322 97.8463 64.3322 97.6651C64.3322 97.5109 64.2866 97.3881 64.1953 97.2964C64.1041 97.2048 63.9828 97.1589 63.8314 97.1589C63.682 97.1589 63.5545 97.211 63.4487 97.3152C63.3429 97.4193 63.2787 97.5713 63.2558 97.7713L62.4501 97.6338C62.5061 97.3568 62.5901 97.136 62.7021 96.9715C62.8162 96.8049 62.9738 96.6747 63.175 96.5809C63.3782 96.4851 63.6053 96.4372 63.8563 96.4372C64.2856 96.4372 64.6298 96.5747 64.8891 96.8496C65.1027 97.0746 65.2095 97.3287 65.2095 97.612C65.2095 98.0139 64.9907 98.3347 64.5531 98.5742C64.8144 98.6305 65.0228 98.7565 65.1784 98.9523C65.336 99.1481 65.4148 99.3845 65.4148 99.6615C65.4148 100.063 65.2686 100.406 64.9762 100.689C64.6838 100.973 64.3198 101.114 63.8843 101.114C63.4715 101.114 63.1293 100.996 62.8576 100.758C62.586 100.519 62.4283 100.206 62.3848 99.8208Z" fill="#131313"/>
<path d="M28.9735 112.188V107.645H29.8944V111.416H32.184V112.188H28.9735Z" fill="#131313"/>
<path d="M32.8373 107.608H33.7581V110.088C33.7581 110.482 33.7695 110.737 33.7924 110.854C33.8318 111.041 33.9251 111.192 34.0723 111.307C34.2217 111.419 34.4249 111.476 34.6821 111.476C34.9434 111.476 35.1404 111.422 35.2732 111.316C35.4059 111.208 35.4857 111.076 35.5127 110.919C35.5397 110.763 35.5531 110.504 35.5531 110.141V107.608H36.474V110.013C36.474 110.563 36.4491 110.952 36.3993 111.179C36.3495 111.406 36.2572 111.597 36.1224 111.754C35.9897 111.91 35.8113 112.035 35.5874 112.128C35.3634 112.22 35.0709 112.266 34.7101 112.266C34.2745 112.266 33.9438 112.216 33.7177 112.116C33.4937 112.014 33.3164 111.883 33.1857 111.722C33.0551 111.56 32.969 111.39 32.9275 111.213C32.8674 110.951 32.8373 110.563 32.8373 110.051V107.608Z" fill="#131313"/>
<path d="M36.9842 112.188L38.5427 109.798L37.1304 107.608H38.2067L39.1214 109.079L40.0173 107.608H41.0843L39.6658 109.832L41.2243 112.188H40.1137L39.1027 110.604L38.0885 112.188H36.9842Z" fill="#131313"/>
</svg>
