<svg width="113" height="45" viewBox="0 0 113 45" fill="none" xmlns="http://www.w3.org/2000/svg">
<g clip-path="url(#clip0_3036_1717)">
<path d="M3.50499 21.0033C4.89411 17.46 8.19365 14.998 8.19365 14.998C7.01305 14.2893 5.35715 14.7322 5.35715 14.7322C8.31938 10.6818 12.3211 9.59748 13.6213 9.19427L10.745 2.06184C4.37281 5.27831 0 11.867 0 19.479C0 27.705 5.10877 34.7427 12.3365 37.6079C2.83957 31.6301 3.50499 21.0033 3.50499 21.0033ZM18.4541 27.0055C15.6483 24.5099 15.3815 22.836 15.3815 22.836C14.8203 23.4714 14.4615 24.2564 14.4615 24.2564C11.901 19.8945 16.3413 15.1507 16.3413 15.1507C11.8888 17.4111 10.8768 22.7321 11.0516 24.8948C11.3061 27.9952 12.9191 29.1132 12.9191 29.1132C13.1062 27.5339 13.6091 26.3152 13.6091 26.3152C14.851 28.8688 17.6507 30.1548 18.4449 34.9352C18.8252 37.1925 18.4449 38.5579 18.31 38.9519C18.727 38.9794 19.1441 38.9886 19.5642 38.9886C21.1005 38.9886 22.5877 38.8145 24.0167 38.4815C24.584 32.2197 20.6344 28.9482 18.451 27.0086L18.4541 27.0055ZM26.1265 13.3118C26.844 13.3118 27.4542 12.8292 27.6689 12.1633C27.6689 12.1633 26.9912 11.8182 26.1909 11.4821C25.4334 11.1645 24.6208 10.9843 24.6208 10.9843C24.1271 12.4016 25.2249 13.3118 26.1265 13.3118ZM15.5287 3.5036C17.1202 3.5036 18.4081 2.21762 18.4081 0.635352C18.4081 0.470405 18.3928 0.207711 18.3713 0.00610915C16.3842 0.128292 14.4738 0.543714 12.6922 1.20961C12.9651 2.51086 14.1426 3.5036 15.5287 3.5036ZM23.4954 3.47916C24.8753 3.47916 26.0314 2.45588 26.3104 1.15768C24.5319 0.507059 22.6307 0.10691 20.662 0C20.6405 0.195493 20.6282 0.488732 20.6282 0.641461C20.6282 2.22068 21.907 3.47916 23.4954 3.47916ZM105.006 17.7746C102.669 17.0079 100.01 16.6535 100.01 15.2393C100.01 14.1213 101.498 13.7212 102.712 13.7212C104.279 13.7212 105.916 14.2129 107.26 14.8666V12.1144C105.631 11.6104 103.659 11.3508 101.872 11.3508C96.9653 11.3508 94.1779 13.1102 94.1779 16.2045C94.1779 18.7001 96.0761 20.0625 98.2625 20.7803C100.964 21.6692 103.5 21.9471 103.5 23.5355C103.5 24.8581 101.611 25.2125 100.216 25.2125C97.9804 25.2125 96.2417 24.9284 94.3159 23.9631V26.7275C96.2447 27.2957 98.6948 27.6317 100.743 27.6317C107.833 27.6317 109.24 24.461 109.24 22.5092C109.24 19.9769 107.904 18.7276 105.009 17.7746H105.006ZM28.2515 1.99464L25.3721 9.16067C27.0127 9.54555 30.0822 10.8926 29.6253 11.7479C29.4045 12.1511 28.9323 12.536 29.1991 12.6551C32.1613 14.0388 35.6632 15.6883 35.6632 15.6883C35.6632 15.6883 35.8871 15.8441 35.7828 16.0671C35.3627 16.9407 34.2588 17.3225 34.2588 17.3225C34.2588 17.3225 34.1453 18.8834 32.3698 20.0838C32.0417 18.8467 30.9592 17.8998 29.61 17.8998C28.0001 17.8998 26.6999 19.2041 26.6999 20.8017C26.6999 22.3992 28.0399 23.6546 29.6529 23.6546C30.4747 23.6546 31.177 23.1506 31.7044 22.6069C32.1214 25.5454 30.024 27.0941 30.024 27.0941C28.9354 25.2797 27.1691 24.7634 25.7125 25.2002C15.7771 20.5176 20.3492 13.0339 20.5669 12.6795C20.3707 12.7284 20.1652 12.7529 19.9536 12.7529C18.4664 12.7529 17.2674 11.5555 17.2674 10.077C17.2674 9.72577 17.3348 9.39282 17.4606 9.08736C17.4452 9.0782 16.3781 9.86017 16.3781 11.2897C16.3781 13.5134 18.2609 13.9289 18.2609 13.9289C18.2609 13.9289 16.3904 16.9957 17.479 20.9025C18.6749 25.1911 23.2164 25.9364 26.0099 29.0215C29.5395 32.9222 29.1991 35.8577 29.058 36.548C35.0714 33.2185 39.1406 26.8222 39.1406 19.4821C39.1406 12.1419 34.7065 5.18667 28.2515 1.99769V1.99464ZM36.1753 22.4939C35.3566 23.1384 34.1392 23.4072 32.422 22.1518C30.8151 20.9635 29.5793 20.8017 29.5793 20.8017C29.5793 20.8017 30.8703 20.5115 32.1092 20.9055C32.9494 21.1743 33.4492 21.4645 34.7249 21.4492C35.7828 21.4401 36.9634 20.8933 36.9634 20.8933C36.9634 20.8933 37.1198 21.7577 36.1753 22.4939ZM111.037 11.4791C109.976 11.4791 109.066 12.2763 109.066 13.4768C109.066 14.6131 109.884 15.4745 111.037 15.4745C112.089 15.4745 113 14.6803 113 13.4768C113 12.2733 112.089 11.4791 111.037 11.4791ZM111.037 15.1263C110.084 15.1263 109.492 14.384 109.492 13.4768C109.492 12.5054 110.167 11.8273 111.037 11.8273C111.908 11.8273 112.571 12.5054 112.571 13.4768C112.571 14.4481 111.896 15.1263 111.037 15.1263ZM74.8774 19.6348C74.8774 24.5435 79.4588 27.6317 86.7632 27.6317C88.5202 27.6317 90.5533 27.3201 92.2614 26.7184V24.0242C90.7956 24.5832 89.1918 24.904 87.45 24.904C84.7669 24.904 80.808 23.5752 80.808 19.3935C80.808 16.1098 83.2122 13.8342 87.0821 13.8342C88.6153 13.8342 90.3816 14.0938 92.2614 15.0652V12.313C90.9581 11.7418 88.8484 11.3508 86.6068 11.3508C79.5661 11.3508 74.8774 14.5153 74.8774 19.6348ZM111.93 13.043C111.93 12.594 111.657 12.4077 111.12 12.4077H110.277V14.6192H110.642V13.6723H110.985L111.559 14.6192H111.973L111.35 13.6478C111.681 13.6112 111.93 13.4462 111.93 13.043ZM110.642 13.3638V12.7162H111.08C111.298 12.7162 111.562 12.7467 111.562 13.0155C111.562 13.3363 111.32 13.3638 111.047 13.3638H110.639H110.642ZM67.4504 27.2865H73.1326V11.699H67.4504V27.2865ZM58.7293 20.0258C61.0813 19.2622 62.817 17.6982 62.817 15.8288C62.817 14.2343 62.2037 12.9972 60.373 12.2427C58.9747 11.6715 56.9048 11.696 55.3807 11.696H46.6167V27.2865H52.2989V13.9961H53.593C55.7211 13.9961 56.9508 14.7719 56.9508 16.4397C56.9508 18.9659 53.1299 20.3068 53.1299 20.3068C54.6233 22.4817 56.1136 24.461 56.9968 25.3957C58.6281 27.1155 59.8363 27.6011 62.1209 27.6011C63.3873 27.6011 64.6477 27.5278 66.2852 27.2865C64.016 25.915 59.9253 21.4492 58.7263 20.0289L58.7293 20.0258Z" fill="#1D1D1B"/>
<path d="M56.96 39.4988V41.2032C56.96 41.4873 57.098 41.7317 57.5641 41.7317C58.0793 41.7317 58.4933 41.4476 58.6742 41.3193V39.3949C58.4963 39.2575 58.0793 38.9734 57.5641 38.9734C57.1011 38.9734 56.96 39.2178 56.96 39.5018V39.4988ZM45.6232 34.7214C43.7987 37.8218 41.278 40.464 38.2729 42.4373C37.1076 43.2009 37.6412 45.0031 39.0333 45.0031H108.805C109.964 45.0031 110.906 44.0654 110.906 42.9107V34.7245H45.6202L45.6232 34.7214ZM51.1245 42.364H50.6339C50.5204 42.364 50.502 42.2998 50.456 42.2021L49.5361 40.18H48.3861V42.2021C48.3861 42.3151 48.3524 42.364 48.2389 42.364H47.7422C47.6348 42.364 47.595 42.3151 47.595 42.2021V37.0063C47.595 36.8932 47.6348 36.8444 47.7422 36.8444H49.3981C50.7995 36.8444 51.2502 37.4278 51.2502 38.0937V38.9398C51.2502 39.4346 50.9957 39.8806 50.2966 40.0761L51.2748 42.2021C51.3146 42.2998 51.241 42.364 51.1276 42.364H51.1245ZM55.2888 40.3755C55.2888 40.4732 55.2489 40.5221 55.1508 40.5221H52.9337V41.2704C52.9337 41.6034 53.0963 41.8142 53.7494 41.8142C54.4026 41.8142 54.5651 41.6034 54.5651 41.2704V41.1819C54.5651 41.075 54.605 41.0261 54.7184 41.0261H55.1355C55.2428 41.0261 55.2919 41.075 55.2919 41.1819V41.3193C55.2919 41.9852 54.8932 42.4312 53.7341 42.4312C52.5749 42.4312 52.1763 41.9852 52.1763 41.3193V39.3858C52.1763 38.7199 52.5933 38.2739 53.7494 38.2739C54.9055 38.2739 55.2888 38.7199 55.2888 39.3858V40.3755ZM59.4469 42.9077C59.4469 43.5736 58.9839 44.0196 57.834 44.0196H56.7086C56.5951 44.0196 56.546 43.9799 56.546 43.8638V43.5217C56.546 43.4148 56.5951 43.3659 56.7086 43.3659H57.834C58.4442 43.3659 58.6742 43.1643 58.6742 42.8222V41.9699C58.4289 42.1471 57.9965 42.4251 57.3372 42.4251C56.546 42.4251 56.1873 41.9852 56.1873 41.3193V39.3705C56.1873 38.7046 56.546 38.2647 57.3372 38.2647C58.0149 38.2647 58.4626 38.5641 58.6895 38.7535L58.7049 38.4938C58.7141 38.3808 58.7447 38.3319 58.8612 38.3319H59.2936C59.4071 38.3319 59.45 38.3808 59.45 38.4938V42.9016L59.4469 42.9077ZM63.7431 42.2082C63.7431 42.3212 63.7032 42.3609 63.5959 42.3609H63.1543C63.0409 42.3609 63.0071 42.3212 62.9979 42.2082L62.9826 41.9638C62.7618 42.1502 62.3478 42.4281 61.6793 42.4281C60.9281 42.4281 60.5294 41.9974 60.5294 41.3957V38.4969C60.5294 38.3839 60.5693 38.335 60.6766 38.335H61.1488C61.2562 38.335 61.3022 38.3839 61.3022 38.4969V41.2002C61.3022 41.5423 61.4586 41.7347 61.9063 41.7347C62.4184 41.7347 62.7955 41.4659 62.9673 41.3285V38.4938C62.9673 38.3808 63.0071 38.3319 63.1145 38.3319H63.5959C63.7032 38.3319 63.7431 38.3808 63.7431 38.4938V42.2051V42.2082ZM65.6504 42.2021C65.6504 42.3151 65.6106 42.364 65.5033 42.364H65.031C64.9176 42.364 64.8746 42.3151 64.8746 42.2021V36.8505C64.8746 36.7375 64.9145 36.6886 65.031 36.6886H65.5033C65.6106 36.6886 65.6504 36.7375 65.6504 36.8505V42.2021ZM69.8331 42.2021C69.8331 42.3151 69.7933 42.364 69.6859 42.364H69.2628C69.1493 42.364 69.1156 42.3151 69.1064 42.2021L69.091 41.9669C68.8549 42.1532 68.4225 42.4312 67.8031 42.4312C67.0457 42.4312 66.6532 41.9761 66.6532 41.4476V41.0566C66.6532 40.5282 67.0273 40.0731 67.7847 40.0731H69.0726V39.4469C69.0726 39.1139 68.9009 38.894 68.2815 38.894C67.6621 38.894 67.475 39.0895 67.475 39.4224V39.4866C67.475 39.5996 67.4351 39.6485 67.3186 39.6485H66.8954C66.7881 39.6485 66.7482 39.5996 66.7482 39.4866V39.3644C66.7482 38.7138 67.1714 38.2678 68.2876 38.2678C69.4038 38.2678 69.827 38.7138 69.827 39.3644V42.199L69.8331 42.2021ZM73.0284 42.2082C73.0284 42.3212 72.9793 42.3609 72.872 42.3609H72.6022C71.4522 42.3609 71.1119 41.9638 71.1119 41.2491V38.9826H70.6641C70.5507 38.9826 70.5108 38.9337 70.5108 38.8207V38.5366C70.5108 38.4297 70.5507 38.39 70.6641 38.3839L71.0628 38.3503H71.1119V37.5316C71.1119 37.4186 71.1609 37.3698 71.2652 37.3698H71.7466C71.8539 37.3698 71.8938 37.4186 71.8938 37.5316V38.3503H72.734C72.8414 38.3503 72.8904 38.39 72.8904 38.4969V38.8207C72.8904 38.9337 72.8414 38.9826 72.734 38.9826H71.8938V41.1666C71.8938 41.5087 72.1054 41.7042 72.7156 41.7042H72.869C72.9763 41.7042 73.0253 41.7531 73.0253 41.8661V42.2082H73.0284ZM76.7787 40.3755C76.7787 40.4732 76.7389 40.5221 76.6407 40.5221H74.4237V41.2704C74.4237 41.6034 74.5862 41.8142 75.2393 41.8142C75.8925 41.8142 76.055 41.6034 76.055 41.2704V41.1819C76.055 41.075 76.0949 41.0261 76.2114 41.0261H76.6285C76.7358 41.0261 76.7849 41.075 76.7849 41.1819V41.3193C76.7849 41.9852 76.3862 42.4312 75.2271 42.4312C74.0679 42.4312 73.6693 41.9852 73.6693 41.3193V39.3858C73.6693 38.7199 74.0863 38.2739 75.2424 38.2739C76.3985 38.2739 76.7818 38.7199 76.7818 39.3858V40.3755H76.7787ZM80.9338 42.2021C80.9338 42.3151 80.8939 42.364 80.7774 42.364H80.345C80.2316 42.364 80.1978 42.3151 80.1887 42.2021L80.1733 41.9577C79.9372 42.1349 79.4956 42.4281 78.821 42.4281C78.0299 42.4281 77.6711 41.9883 77.6711 41.3224V39.3736C77.6711 38.7077 78.0299 38.2678 78.821 38.2678C79.4803 38.2678 79.9127 38.5519 80.158 38.7321V36.8474C80.158 36.7344 80.1917 36.6855 80.3052 36.6855H80.7774C80.8909 36.6855 80.9338 36.7344 80.9338 36.8474V42.199V42.2021ZM87.0238 41.3254C87.0238 41.9913 86.6651 42.4312 85.8739 42.4312C85.1901 42.4312 84.7485 42.1379 84.5216 41.9608L84.5063 42.2051C84.4971 42.3182 84.4664 42.367 84.3529 42.367H83.9206C83.8071 42.367 83.7672 42.3182 83.7672 42.2051V36.8535C83.7672 36.7405 83.8071 36.6916 83.9206 36.6916H84.3928C84.5001 36.6916 84.54 36.7405 84.54 36.8535V38.7382C84.7761 38.561 85.2085 38.2739 85.877 38.2739C86.6681 38.2739 87.0269 38.7138 87.0269 39.3797V41.3285L87.0238 41.3254ZM90.9949 38.4999L89.152 43.8668C89.1275 43.9493 89.0876 44.0226 88.9803 44.0226H88.6307C88.5172 44.0226 88.4498 43.9737 88.4835 43.8668L88.9404 42.4312L87.5697 38.4999C87.536 38.393 87.6034 38.3381 87.7077 38.3381H88.1891C88.2964 38.3381 88.3363 38.4022 88.367 38.4999L89.1581 40.8459C89.2317 41.0719 89.2716 41.3743 89.2808 41.4048C89.29 41.3651 89.3544 41.0811 89.428 40.8611L90.2345 38.4969C90.2682 38.39 90.3081 38.335 90.4123 38.335H90.8508C90.9581 38.335 91.0225 38.393 90.9888 38.4969L90.9949 38.4999ZM96.9869 42.364H96.4993C96.3858 42.364 96.3674 42.2998 96.3184 42.2021L95.3984 40.18H94.2485V42.2021C94.2485 42.3151 94.2148 42.364 94.1013 42.364H93.6045C93.5003 42.364 93.4573 42.3151 93.4573 42.2021V37.0063C93.4573 36.8932 93.4972 36.8444 93.6045 36.8444H95.2604C96.6618 36.8444 97.1126 37.4278 97.1126 38.0937V38.9398C97.1126 39.4346 96.8611 39.8806 96.1589 40.0761L97.1371 42.2021C97.177 42.2998 97.1034 42.364 96.9899 42.364H96.9869ZM99.0659 42.2021C99.0659 42.3151 99.0322 42.364 98.9187 42.364H98.422C98.3146 42.364 98.2748 42.3151 98.2748 42.2021V37.0063C98.2748 36.8932 98.3146 36.8444 98.422 36.8444H98.9187C99.0322 36.8444 99.0659 36.8932 99.0659 37.0063V42.2021ZM103.89 38.4266C103.89 38.5397 103.85 38.5885 103.742 38.5885H103.27C103.157 38.5885 103.117 38.5397 103.117 38.4266V38.1578C103.117 37.718 102.832 37.4522 102.099 37.4522C101.366 37.4522 101.087 37.721 101.087 38.1578V41.0475C101.087 41.4873 101.363 41.7531 102.099 41.7531C102.835 41.7531 103.117 41.4843 103.117 41.0475V40.6656C103.117 40.5587 103.157 40.5129 103.27 40.5129H103.742C103.85 40.5129 103.89 40.5618 103.89 40.6656V41.1788C103.89 41.8447 103.491 42.4281 102.086 42.4281C100.682 42.4281 100.286 41.8447 100.286 41.1788V38.0265C100.286 37.3606 100.685 36.7772 102.086 36.7772C103.488 36.7772 103.89 37.3606 103.89 38.0265V38.4236V38.4266ZM108.406 41.1788C108.406 41.8447 107.94 42.4281 106.582 42.4281C105.223 42.4281 104.748 41.8447 104.748 41.1788V40.7084C104.748 40.5954 104.797 40.5465 104.905 40.5465H105.386C105.493 40.5465 105.533 40.5954 105.533 40.7084V41.075C105.533 41.5148 105.843 41.7653 106.576 41.7653C107.309 41.7653 107.628 41.5148 107.628 41.075V40.6931C107.628 40.2869 107.26 40.1494 106.944 40.0272L105.567 39.4988C105.208 39.3613 104.84 38.9948 104.84 38.4908V38.0295C104.84 37.3636 105.263 36.7802 106.591 36.7802C107.919 36.7802 108.36 37.3636 108.36 38.0295V38.3869C108.36 38.4908 108.321 38.5397 108.213 38.5397H107.732C107.618 38.5397 107.585 38.4908 107.585 38.3869V38.1334C107.585 37.6966 107.315 37.4431 106.597 37.4431C105.88 37.4431 105.61 37.6966 105.61 38.1334V38.2953C105.61 38.6679 105.855 38.7749 106.027 38.839L107.511 39.398C108.002 39.5843 108.406 39.902 108.406 40.5037V41.1788ZM53.7494 38.8879C53.13 38.8879 52.9337 39.1078 52.9337 39.4316V39.9417H54.5651V39.4316C54.5651 39.1078 54.3627 38.8879 53.7494 38.8879ZM50.456 38.7993V38.222C50.456 37.7852 50.131 37.5164 49.395 37.5164H48.3831V39.5049H49.395C50.1279 39.5049 50.456 39.2453 50.456 38.7993ZM67.4106 41.1696V41.3315C67.4106 41.6492 67.5915 41.7867 67.9994 41.7867C68.4961 41.7867 68.8887 41.5179 69.0757 41.3712V40.6717H67.9503C67.5425 40.6717 67.4106 40.8489 67.4106 41.1666V41.1696ZM78.45 39.4988V41.2032C78.45 41.4873 78.5879 41.7317 79.054 41.7317C79.5662 41.7317 79.9832 41.4476 80.1641 41.3193V39.3949C79.9863 39.2575 79.5692 38.9734 79.054 38.9734C78.5879 38.9734 78.45 39.2178 78.45 39.5018V39.4988ZM75.2363 38.8879C74.6168 38.8879 74.4206 39.1078 74.4206 39.4316V39.9417H76.052V39.4316C76.052 39.1078 75.8496 38.8879 75.2363 38.8879ZM85.647 38.9704C85.1165 38.9704 84.7178 39.2544 84.5369 39.3919V41.3163C84.7178 41.4476 85.1165 41.7286 85.647 41.7286C86.11 41.7286 86.2511 41.4843 86.2511 41.2002V39.4957C86.2511 39.2117 86.1131 38.9673 85.647 38.9673V38.9704ZM96.3184 38.7993V38.222C96.3184 37.7852 95.9933 37.5164 95.2574 37.5164H94.2454V39.5049H95.2574C95.9903 39.5049 96.3184 39.2453 96.3184 38.7993Z" fill="#1D1D1B"/>
</g>
<defs>
<clipPath id="clip0_3036_1717">
<rect width="113" height="45" fill="white"/>
</clipPath>
</defs>
</svg>
