<svg width="529" height="819" viewBox="0 0 529 819" fill="none" xmlns="http://www.w3.org/2000/svg">
<path d="M0.526769 -283.988C26.3195 -274.168 50.7028 -258.226 72.1965 -241.221C119.247 -203.988 154.715 -153.331 168.251 -94.7961C177.079 -56.6277 184.583 -18.5095 196.851 18.8348C204.401 41.8185 212.881 65.1819 225.293 86.1187C228.227 91.0705 236.524 106.847 244.582 104.7C248.575 103.638 248.907 98.2412 250.486 95.2771C255.849 85.2348 268.449 86.6267 275.559 94.0929C285.937 105.001 281.739 119.83 276.59 131.934C270.919 145.272 264.232 158.162 258.995 171.694C254.069 184.418 250.185 197.884 250.37 211.666C250.583 227.51 257.27 240.773 266.199 253.643C274.989 266.313 285.68 277.565 298.34 286.47C308.223 293.418 319.034 298.737 329.7 304.338C340.366 309.938 350.462 315.997 358.722 324.645C370.45 336.931 376.643 352.351 381.765 368.186C402.202 431.364 438.156 487.139 487.789 531.65C534.409 573.46 588.459 606.05 637.766 644.487C651.754 655.394 665.431 666.703 678.663 678.513C694.016 692.218 708.096 707.258 722.869 721.574C744.755 742.788 767.231 763.528 791.074 782.566C803.523 792.506 816.381 802.176 830.202 810.174C835.294 813.121 841.204 816.836 847.081 818.043C847.704 818.173 848.307 818.399 848.945 818.458C849.79 818.54 850.047 817.241 849.189 817.158C846.336 816.885 843.394 815.41 840.834 814.247C830.495 809.553 820.903 803.101 811.685 796.533C792.211 782.662 773.976 767.066 756.252 751.062C728.012 725.56 702.319 697.355 673.676 672.334C624.517 629.398 569.001 595.033 517.708 554.872C493.751 536.118 471.011 515.726 451.32 492.511C429.329 466.588 411.505 437.477 397.85 406.462C390.212 389.12 385.144 370.989 378.11 353.466C373.155 341.128 366.186 329.538 356.337 320.415C338.372 303.775 313.731 296.89 294.465 281.951C280.467 271.092 269.244 257.177 260.344 241.98C251.936 227.621 250.14 211.717 253.211 195.619C256.091 180.54 262.346 166.352 268.721 152.484C274.076 140.822 281.779 128.203 283.227 115.238C284.239 106.193 281.393 96.6069 273.932 90.8323C268.617 86.7158 261.02 84.9755 254.998 88.5183C251.536 90.5548 249.398 93.9169 248.035 97.5958C247.399 99.3037 247.039 101.697 245.389 102.821C242.179 105.001 238.341 101.214 236.234 99.0505C223.278 85.741 215.862 65.8392 209.155 49.0207C196.516 17.3154 187.221 -15.6925 179.455 -48.8373C174.864 -68.4209 171.822 -88.4253 166.259 -107.781C161.898 -122.96 156.048 -137.708 148.832 -151.788C135.933 -176.968 118.67 -199.824 98.5147 -219.747C72.137 -245.797 40.5487 -267.911 6.50521 -282.908C4.72421 -283.693 2.92738 -284.474 1.10761 -285.167C0.310666 -285.468 -0.278092 -284.286 0.524176 -283.983L0.526769 -283.988Z" fill="#DF0067"/>
</svg>
