<svg width="157" height="51" viewBox="0 0 157 51" fill="none" xmlns="http://www.w3.org/2000/svg">
<g clip-path="url(#clip0_3036_1757)">
<path d="M13.2315 30.3202V31.1495H0V30.3202H1.09496C2.3695 30.3202 3.29803 29.9531 3.87179 29.2188C4.23531 28.7394 4.41927 27.5862 4.41927 25.7592V6.08568C4.41927 4.54376 4.31853 3.52445 4.12144 3.03207C3.96814 2.65631 3.65717 2.33669 3.18853 2.06459C2.51841 1.70611 1.82202 1.5247 1.09496 1.5247H0V0.695435H13.2315V1.5247H12.1147C10.8533 1.5247 9.93787 1.89183 9.35973 2.62607C8.97869 3.1055 8.79035 4.2587 8.79035 6.08568V25.7592C8.79035 27.3011 8.89109 28.3204 9.08818 28.8128C9.24148 29.1886 9.55683 29.5082 10.043 29.7803C10.6956 30.1388 11.3876 30.3202 12.1147 30.3202H13.2315Z" fill="#5D0524"/>
<path d="M11.4226 0.695435H19.8013L38.6784 23.5349V5.97338C38.6784 4.10321 38.4638 2.93273 38.0389 2.47059C37.4783 1.84 36.5892 1.52902 35.376 1.52902H34.3073V0.699754H45.0555V1.52902H43.9605C42.6553 1.52902 41.7268 1.91774 41.1837 2.69518C40.8508 3.1746 40.6844 4.26734 40.6844 5.97338V31.6418H39.8653L19.5078 7.11794V25.8715C19.5078 27.7417 19.7137 28.9122 20.121 29.3743C20.6991 30.0049 21.5839 30.3159 22.7839 30.3159H23.8789V31.1451H13.1307V30.3159H14.1994C15.5221 30.3159 16.4551 29.9271 17.0025 29.1454C17.3354 28.666 17.5018 27.5732 17.5018 25.8672V4.69493C16.604 3.66266 15.9251 2.98024 15.4652 2.65199C15.0009 2.32374 14.3221 2.01708 13.4286 1.73202C12.9862 1.59813 12.3205 1.52902 11.4226 1.52902V0.699754V0.695435Z" fill="#5D0524"/>
<path d="M60.4464 0C64.4539 0 67.9271 1.50305 70.866 4.50483C73.8049 7.50661 75.2721 11.2513 75.2721 15.7431C75.2721 20.235 73.7918 24.2086 70.831 27.2622C67.8702 30.3158 64.2875 31.8448 60.0828 31.8448C55.8782 31.8448 52.2604 30.3547 49.3697 27.3745C46.479 24.3943 45.0293 20.5417 45.0293 15.8079C45.0293 11.0742 46.698 7.02718 50.0398 3.97358C52.9393 1.32165 56.4081 0 60.4464 0ZM60.0128 1.64126C57.2491 1.64126 55.0329 2.65193 53.3641 4.67327C51.2837 7.18699 50.2457 10.8712 50.2457 15.7215C50.2457 20.5719 51.3231 24.5196 53.478 27.1974C55.1336 29.2317 57.3192 30.251 60.0347 30.251C62.9341 30.251 65.3299 29.1367 67.2176 26.9037C69.1097 24.675 70.0514 21.155 70.0514 16.3478C70.0514 11.139 69.0133 7.25178 66.9329 4.69055C65.2642 2.65625 62.956 1.63694 60.0084 1.63694L60.0128 1.64126Z" fill="#5D0524"/>
<path d="M118.396 0.695359V1.52463C117.59 1.52463 116.938 1.66716 116.438 1.95222C115.939 2.23728 115.457 2.76853 115.002 3.54597C114.695 4.06858 114.218 5.32112 113.565 7.29495L104.959 31.8404H104.048L97.0092 12.3699L90.019 31.8404H89.1999L80.0242 6.55207C79.3409 4.66462 78.9073 3.55029 78.7277 3.20476C78.4255 2.63464 78.0094 2.21137 77.4882 1.93494C76.9626 1.65852 76.2531 1.52031 75.3596 1.52031V0.69104H86.791V1.52031H86.2435C85.4377 1.52031 84.8245 1.70171 84.3996 2.0602C83.9748 2.41868 83.7602 2.85491 83.7602 3.36457C83.7602 3.87422 84.093 5.09221 84.7632 6.97966L90.8424 24.0704L95.9668 9.54089L95.0558 6.97966L94.3287 4.93672C94.009 4.18952 93.6542 3.52869 93.2601 2.95857C93.063 2.67351 92.8177 2.43596 92.533 2.2416C92.152 1.97381 91.7753 1.77945 91.3942 1.65852C91.1052 1.56782 90.6497 1.52463 90.0277 1.52463V0.695359H102.055V1.52463H101.236C100.386 1.52463 99.7641 1.70603 99.3699 2.06452C98.9758 2.423 98.7787 2.91106 98.7787 3.52437C98.7787 4.28885 99.1203 5.61914 99.8035 7.52386L105.725 24.0747L111.598 7.29927C112.269 5.44206 112.601 4.15496 112.601 3.43799C112.601 3.09246 112.492 2.77285 112.273 2.47051C112.054 2.17249 111.774 1.96086 111.441 1.83992C110.863 1.62829 110.114 1.52463 109.185 1.52463V0.695359H118.409H118.396Z" fill="#5D0524"/>
<path d="M132.595 20.952H120.638L118.545 25.7591C118.028 26.9426 117.77 27.8237 117.77 28.4068C117.77 28.8689 117.993 29.2792 118.44 29.6291C118.887 29.9789 119.854 30.2078 121.344 30.3158V31.1451H111.62V30.3158C112.912 30.0912 113.745 29.7975 114.126 29.439C114.901 28.7221 115.759 27.2622 116.701 25.0594L127.563 0H128.36L139.108 25.3316C139.971 27.3659 140.759 28.6875 141.465 29.2965C142.17 29.9012 143.155 30.2424 144.412 30.3201V31.1494H132.228V30.3201C133.458 30.2597 134.29 30.0567 134.72 29.7154C135.153 29.3699 135.368 28.951 135.368 28.4586C135.368 27.8021 135.061 26.7612 134.457 25.3359L132.591 20.9563L132.595 20.952ZM131.96 19.2891L126.722 6.98399L121.348 19.2891H131.96Z" fill="#5D0524"/>
<path d="M157 30.3202V31.1495H143.769V30.3202H144.864C146.138 30.3202 147.067 29.9531 147.64 29.2188C148.004 28.7394 148.188 27.5862 148.188 25.7592V6.08568C148.188 4.54376 148.087 3.52445 147.89 3.03207C147.737 2.65631 147.426 2.33669 146.957 2.06459C146.287 1.70611 145.591 1.5247 144.859 1.5247H143.764V0.695435H156.996V1.5247H155.879C154.617 1.5247 153.702 1.89183 153.124 2.62607C152.743 3.1055 152.555 4.2587 152.555 6.08568V25.7592C152.555 27.3011 152.651 28.3204 152.848 28.8128C153.001 29.1886 153.317 29.5082 153.807 29.7803C154.46 30.1388 155.152 30.3202 155.879 30.3202H156.996H157Z" fill="#5D0524"/>
<path d="M19.9194 45.2902H22.9678C23.8394 45.2902 24.6672 45.7178 24.6672 46.8969C24.6672 47.9507 23.962 48.5209 22.705 48.5209H20.5063V50.8618H19.9194V45.2902ZM20.5063 47.9896H22.7707C23.7518 47.9896 24.0365 47.5447 24.0365 46.8969C24.0365 46.0633 23.5635 45.8214 22.889 45.8214H20.5063V47.9896Z" fill="#DF0067"/>
<path d="M27.0762 45.2902H30.1552C31.1144 45.2902 31.9904 45.6271 31.9904 46.7975C31.9904 47.3892 31.6181 47.9853 30.8823 48.1451V48.1624C31.6794 48.2876 31.8458 48.793 31.8852 49.7086C31.9028 50.0585 31.9466 50.7366 32.0823 50.8618H31.4516C31.3465 50.7452 31.3071 50.3306 31.3027 49.7216C31.2852 48.7368 30.9085 48.4129 29.9318 48.4129H27.6631V50.8618H27.0762V45.2902ZM27.6587 47.8816H30.1333C30.7728 47.8816 31.3509 47.6484 31.3509 46.7975C31.3509 45.9467 30.7246 45.8214 30.1859 45.8214H27.6543V47.8816H27.6587Z" fill="#DF0067"/>
<path d="M37.2724 45.152C38.8798 45.152 40.3427 46.1108 40.3427 48.076C40.3427 50.0412 38.8798 51 37.2724 51C35.665 51 34.2021 50.0412 34.2021 48.076C34.2021 46.1108 35.665 45.152 37.2724 45.152ZM37.2724 50.4688C38.5163 50.4688 39.7076 49.7518 39.7076 48.076C39.7076 46.4002 38.5119 45.6789 37.2724 45.6789C36.0329 45.6789 34.8372 46.3959 34.8372 48.076C34.8372 49.7561 36.0329 50.4688 37.2724 50.4688Z" fill="#DF0067"/>
<path d="M42.8437 45.2902H45.8877C46.7593 45.2902 47.5871 45.7178 47.5871 46.8969C47.5871 47.9507 46.882 48.5209 45.6249 48.5209H43.4263V50.8618H42.8394V45.2902H42.8437ZM43.4306 47.9896H45.695C46.6761 47.9896 46.9608 47.5447 46.9608 46.8969C46.9608 46.0633 46.4878 45.8214 45.8133 45.8214H43.4306V47.9896Z" fill="#DF0067"/>
<path d="M49.9958 45.2902H54.4896V45.8214H50.5827V47.7089H54.3494V48.2401H50.5827V50.3306H54.5553V50.8618H49.9958V45.2902Z" fill="#DF0067"/>
<path d="M56.9993 45.2902H60.0783C61.0375 45.2902 61.9134 45.6271 61.9134 46.7975C61.9134 47.3892 61.5412 47.9853 60.8053 48.1451V48.1624C61.6025 48.2876 61.7689 48.793 61.8083 49.7086C61.8258 50.0585 61.874 50.7366 62.0054 50.8618H61.3703C61.2696 50.7452 61.2258 50.3306 61.2214 49.7216C61.2039 48.7368 60.8272 48.4129 59.8549 48.4129H57.5818V50.8618H56.9949V45.2902H56.9993ZM57.5818 47.8816H60.0608C60.7002 47.8816 61.2784 47.6484 61.2784 46.7975C61.2784 45.9467 60.652 45.8214 60.1133 45.8214H57.5818V47.8816Z" fill="#DF0067"/>
<path d="M66.0263 45.8214H63.8101V45.2902H68.825V45.8214H66.6088V50.8618H66.0219V45.8214H66.0263Z" fill="#DF0067"/>
<path d="M72.815 48.5209L70.2747 45.2902H71.0324L73.104 47.9421L75.1757 45.2902H75.9334L73.3931 48.5209V50.8618H72.8062V48.5209H72.815Z" fill="#DF0067"/>
<path d="M81.8025 45.2902H84.8465C85.7181 45.2902 86.5459 45.7178 86.5459 46.8969C86.5459 47.9507 85.8407 48.5209 84.5837 48.5209H82.385V50.8618H81.7981V45.2902H81.8025ZM82.3894 47.9896H84.6538C85.6348 47.9896 85.9195 47.5447 85.9195 46.8969C85.9195 46.0633 85.4465 45.8214 84.772 45.8214H82.3894V47.9896Z" fill="#DF0067"/>
<path d="M92.6689 49.1687H89.695L88.9285 50.8618H88.2935L90.8557 45.2902H91.5345L94.0968 50.8618H93.4179L92.6646 49.1687H92.6689ZM91.1885 45.8689L89.9315 48.6375H92.4324L91.1885 45.8689Z" fill="#DF0067"/>
<path d="M96.2515 45.2902H99.3305C100.29 45.2902 101.166 45.6271 101.166 46.7975C101.166 47.3892 100.793 47.9853 100.058 48.1451V48.1624C100.855 48.2876 101.021 48.793 101.061 49.7086C101.078 50.0585 101.122 50.7366 101.258 50.8618H100.623C100.522 50.7452 100.478 50.3306 100.474 49.7216C100.456 48.7368 100.079 48.4129 99.1071 48.4129H96.8384V50.8618H96.2515V45.2902ZM96.8384 47.8816H99.313C99.9524 47.8816 100.531 47.6484 100.531 46.7975C100.531 45.9467 99.9043 45.8214 99.3655 45.8214H96.834V47.8816H96.8384Z" fill="#DF0067"/>
<path d="M105.278 45.8214H103.062V45.2902H108.077V45.8214H105.861V50.8618H105.274V45.8214H105.278Z" fill="#DF0067"/>
<path d="M110.171 45.2902H110.876L114.822 50.0498H114.84V45.2902H115.426V50.8618H114.748L110.775 46.1022H110.758V50.8618H110.171V45.2902Z" fill="#DF0067"/>
<path d="M118.146 45.2902H122.64V45.8214H118.733V47.7089H122.5V48.2401H118.733V50.3306H122.706V50.8618H118.146V45.2902Z" fill="#DF0067"/>
<path d="M125.145 45.2902H128.225C129.184 45.2902 130.06 45.6271 130.06 46.7975C130.06 47.3892 129.687 47.9853 128.952 48.1451V48.1624C129.749 48.2876 129.915 48.793 129.955 49.7086C129.972 50.0585 130.016 50.7366 130.152 50.8618H129.517C129.411 50.7452 129.372 50.3306 129.368 49.7216C129.35 48.7368 128.973 48.4129 128.001 48.4129H125.728V50.8618H125.141V45.2902H125.145ZM125.732 47.8816H128.207C128.846 47.8816 129.425 47.6484 129.425 46.7975C129.425 45.9467 128.798 45.8214 128.26 45.8214H125.728V47.8816H125.732Z" fill="#DF0067"/>
<path d="M136.327 46.8796C136.248 45.9294 135.464 45.6789 134.558 45.6789C133.651 45.6789 132.959 46.0288 132.959 46.6637C132.959 47.3893 133.647 47.562 135.022 47.7866C136.051 47.9594 137.08 48.1926 137.08 49.2594C137.08 50.6243 135.823 51 134.724 51C133.292 51 132.249 50.5163 132.162 49.0176H132.749C132.854 50.1881 133.642 50.4688 134.728 50.4688C135.574 50.4688 136.454 50.2442 136.454 49.3631C136.454 48.482 135.425 48.4129 134.396 48.2488C133.051 48.0371 132.333 47.6657 132.333 46.7673C132.333 45.5493 133.471 45.152 134.566 45.152C135.723 45.152 136.883 45.558 136.923 46.8839H136.336L136.327 46.8796Z" fill="#DF0067"/>
</g>
<defs>
<clipPath id="clip0_3036_1757">
<rect width="157" height="51" fill="white"/>
</clipPath>
</defs>
</svg>
