<svg width="104" height="83" viewBox="0 0 104 83" fill="none" xmlns="http://www.w3.org/2000/svg">
<path d="M23.0668 56.5879L26.5322 64.5803L29.9975 56.5879L31.9205 66.6435H30.8388L29.6169 60.2135H29.5969L26.5322 67.0441L23.4874 60.2135H23.4474L22.2255 66.6435H21.1438L23.0668 56.5879Z" fill="#131313"/>
<path d="M38.1529 59.1516L36.5304 62.9575H39.7554L38.1529 59.1516ZM36.0897 63.939L34.9479 66.6432H33.7861L38.1729 56.6677L42.4596 66.6432H41.2778L40.156 63.939H36.0897Z" fill="#131313"/>
<path d="M46.8245 65.6624C47.9863 65.6624 48.9478 65.5021 49.8292 64.6809C51.3716 63.1986 51.4117 60.7347 49.9294 59.1923C49.8893 59.1323 49.8292 59.0922 49.7691 59.0521C48.9078 58.2909 47.9463 58.1307 46.8245 58.1307H46.0634V65.6824H46.8245V65.6624ZM45.0017 57.1292H46.7845C48.2067 57.1292 49.3685 57.3094 50.4902 58.2709C51.5318 59.1923 52.1127 60.5144 52.0727 61.8965C52.1127 63.2587 51.5318 64.5607 50.5103 65.442C49.3685 66.4436 48.2468 66.6439 46.7444 66.6439H44.9817V57.1292" fill="#131313"/>
<path d="M55.0789 57.1292H60.0065V58.1107H56.1405V60.9351H59.9063V61.9166H56.1405V65.6424H60.0065V66.6239H55.0789V57.1292Z" fill="#131313"/>
<path d="M69.8402 66.6439H68.7786V57.1292H69.8402V66.6439Z" fill="#131313"/>
<path d="M73.3491 56.729L80.7606 64.5011V57.1296H81.8223V67.065L74.4108 59.313V66.6444H73.3491V56.729Z" fill="#131313"/>
<path d="M5.82214 80.8059H8.44621V81.7875H4.7605V72.2727H5.82214V80.8059Z" fill="#131313"/>
<path d="M12.0509 77.9415C12.0509 78.6426 12.0309 79.4639 12.4716 80.0648C12.9523 80.6457 13.6534 80.9662 14.3946 80.9662C15.1357 80.9662 15.7767 80.6457 16.2574 80.1249C16.7582 79.524 16.7182 78.6826 16.7182 77.9415V72.2727H17.7798V78.2219C17.7798 79.2635 17.6997 80.0848 16.9385 80.866C15.5764 82.2682 13.3329 82.3083 11.9107 80.9662C11.0694 80.1649 10.9692 79.3036 10.9692 78.2219V72.2727H12.0309V77.9415" fill="#131313"/>
<path d="M20.6246 72.2727H21.8265L23.7695 75.8583L25.7125 72.2727H26.9344L24.3504 76.8598L27.1748 81.7875H25.9529L23.7695 77.8814L21.5861 81.7875H20.3843L23.1886 76.8598L20.6246 72.2727Z" fill="#131313"/>
<path d="M29.8193 72.2727H34.747V73.2542H30.861V76.0786H34.6268V77.0601H30.861V80.8059H34.727V81.7875H29.7993L29.8193 72.2727Z" fill="#131313"/>
<path d="M39.3034 71.7417L42.7687 79.7341L46.2341 71.7417L48.1571 81.7973H47.0754L45.8535 75.3673H45.8335L42.7687 82.1979L39.704 75.3673H39.6839L38.462 81.7973H37.3804L39.3034 71.7417Z" fill="#131313"/>
<path d="M51.9742 80.8059H53.0359C54.2177 80.8059 55.4797 80.5255 55.4797 79.0632C55.4797 77.601 54.0575 77.3806 52.8957 77.3806H51.9742V80.8059ZM51.9742 76.4592H52.3749C53.5767 76.4592 54.5983 76.319 54.5983 74.8367C54.5983 73.3544 53.6969 73.2542 52.3949 73.2542H51.9742V76.4592ZM50.9126 72.2727H52.475C54.1977 72.2727 55.66 72.9137 55.66 74.8567C55.7 75.5979 55.3395 76.299 54.7185 76.7196C55.8202 77 56.5814 78.0216 56.5213 79.1634C56.5213 81.0663 54.9989 81.8075 53.116 81.8075H50.9126V72.2727Z" fill="#131313"/>
<path d="M60.188 77.0394C60.208 79.2027 61.9708 80.9254 64.1341 80.9053C66.2975 80.8853 68.0202 79.1226 68.0001 76.9592C67.9801 74.8159 66.2374 73.0932 64.0941 73.0932C61.9307 73.1133 60.168 74.876 60.188 77.0394ZM69.0417 77.0394C69.0618 79.7836 66.8584 82.0271 64.1141 82.0471C61.3698 82.0671 59.1264 79.8637 59.1063 77.1195C59.0863 74.3752 61.2897 72.1317 64.034 72.1117H64.074C66.7983 72.0917 69.0217 74.2751 69.0417 76.9993V77.0394Z" fill="#131313"/>
<path d="M73.0299 77.9415C73.0299 78.6426 73.0099 79.4639 73.4506 80.0648C73.9313 80.6457 74.6324 80.9662 75.3735 80.9662C76.1147 80.9662 76.7557 80.6457 77.2364 80.1249C77.7372 79.524 77.6972 78.6826 77.6972 77.9415V72.2727H78.7588V78.2219C78.7588 79.2635 78.6787 80.0848 77.9175 80.866C76.5554 82.2682 74.3119 82.3083 72.8897 80.9662C72.0484 80.1649 71.9482 79.3036 71.9482 78.2219V72.2727H73.0099V77.9415" fill="#131313"/>
<path d="M83.2255 76.6795H83.546C84.7478 76.6795 85.9497 76.4592 85.9497 74.9769C85.9497 73.4145 84.8079 73.2542 83.5259 73.2542H83.2054V76.6795H83.2255ZM83.2255 81.7875H82.1638V72.2727H83.546C85.3488 72.2727 87.0314 72.7535 87.0314 74.8968C87.1115 76.2589 86.0699 77.4407 84.6877 77.5208H84.6477L87.6724 81.7875H86.3703L83.4859 77.601H83.2255V81.7875Z" fill="#131313"/>
<path d="M99.3909 77.0019C99.4109 78.2838 99.2707 79.3455 98.4093 80.3671C97.5079 81.3686 96.226 81.9495 94.8839 81.9495C92.1597 81.8894 89.9963 79.646 90.0564 76.9217C90.1165 74.1975 92.36 72.0341 95.0842 72.0942C96.6466 72.1343 98.0889 72.8955 98.9903 74.1574L98.2291 74.8786C97.4278 73.7568 96.3662 73.0958 94.964 73.0958C92.8007 73.1359 91.058 74.8986 91.078 77.0619C91.078 78.0635 91.4786 79.025 92.1797 79.7461C92.9008 80.4873 93.8623 80.9079 94.8839 80.948C96.5465 80.948 98.2691 79.7461 98.2691 77.9633H95.4247V76.9818H99.3909" fill="#131313"/>
<path d="M51.9151 13.6211C48.1492 13.6211 45.1045 10.5764 45.1045 6.81056C45.1045 3.04472 48.1492 0 51.9151 0C55.6809 0 58.7256 3.04472 58.7256 6.81056C58.7256 10.5764 55.6809 13.6011 51.9151 13.6211ZM51.9151 2.18339C49.3711 2.18339 47.3079 4.24659 47.3079 6.79053C47.3079 9.33448 49.3711 11.3977 51.9151 11.3977C54.459 11.3977 56.5222 9.33448 56.5222 6.79053C56.5222 4.24659 54.459 2.18339 51.9151 2.18339Z" fill="#131313"/>
<path d="M84.9253 20.7325C82.4815 20.7325 80.0377 21.2132 77.7942 22.1747L77.7742 22.1547L77.7541 22.1747C74.3288 17.6477 68.9805 14.9835 63.2917 14.9435H63.1315C59.0451 14.9635 55.099 16.3657 51.9141 18.8896L51.894 18.8696L51.874 18.8896C48.6891 16.3457 44.7229 14.9635 40.6566 14.9435H40.4964C34.8075 14.9835 29.4793 17.6677 26.0339 22.1747L26.0139 22.1547L25.9939 22.1747C23.7304 21.2132 21.3066 20.7124 18.8628 20.7325C8.76715 20.7525 0.614513 28.9252 0.594482 39.0208C0.594482 39.8621 0.654576 40.7034 0.754731 41.5247C0.794793 41.7851 1.0552 43.5879 3.0583 50.118L7.22476 65.6221L9.34806 65.0412L5.20163 49.5171L5.1816 49.477C3.17849 42.9469 2.95815 41.3244 2.95815 41.2643V41.2242C1.73625 32.4306 7.88579 24.318 16.6794 23.0961C19.4237 22.7155 22.208 23.0561 24.792 24.0576C19.7442 32.8112 22.7488 44.0085 31.5024 49.0564C31.863 49.2767 32.2436 49.477 32.6241 49.6573L33.4855 50.078L34.0263 49.2967C38.1127 43.2474 38.2328 35.3551 34.3068 29.2056C32.7243 26.7217 30.581 24.6585 28.037 23.1963C31.0617 19.3904 35.6488 17.1669 40.4964 17.1269H40.6366C44.1019 17.1469 47.4672 18.3087 50.2114 20.3919C43.1405 27.5831 43.2206 39.141 50.4117 46.212C50.6521 46.4523 50.9125 46.6927 51.1529 46.9131L51.874 47.554L52.5951 46.9131C60.1669 40.2427 60.908 28.6848 54.2176 21.113C53.9973 20.8526 53.777 20.6123 53.5366 20.3719C56.3009 18.2686 59.6461 17.1269 63.1114 17.1068H63.2516C68.1192 17.1469 72.6863 19.3703 75.711 23.1762C70.0622 26.4413 66.5768 32.4907 66.5768 39.0208C66.5568 42.6865 67.6585 46.252 69.7217 49.2767L70.2625 50.0579L71.1239 49.6373C80.218 45.2104 83.9838 34.2334 79.5569 25.1593C79.3766 24.7787 79.1763 24.4182 78.956 24.0376C87.1888 20.7525 96.5232 24.7587 99.8083 32.9915C100.85 35.5955 101.19 38.4199 100.79 41.2042V41.2242C100.79 41.2843 100.57 42.9269 98.5464 49.437L94.3599 65.0011L96.4832 65.582L100.65 50.078C102.653 43.5679 102.933 41.7651 102.953 41.4846C103.073 40.6634 103.113 39.8221 103.113 38.9808C103.234 28.9252 95.0209 20.7325 84.9253 20.7325ZM34.9878 39.0208C34.9878 41.9053 34.2066 44.7297 32.7443 47.2135C25.0123 42.8467 22.2681 33.0315 26.6549 25.2795C26.715 25.1794 26.755 25.0792 26.8151 24.9991C31.863 27.8435 35.0078 33.2118 34.9878 39.0208ZM51.9141 44.5894C45.6243 38.2997 45.6243 28.1239 51.9141 21.8342C58.2038 28.1239 58.2038 38.2997 51.9141 44.5894ZM79.2765 33.2118C79.2965 39.0208 76.1717 44.3891 71.1038 47.2336C66.5768 39.5817 69.1007 29.7064 76.7526 25.1794C76.8527 25.1193 76.9329 25.0592 77.033 25.0191C78.4953 27.4829 79.2765 30.3273 79.2765 33.2118Z" fill="#131313"/>
</svg>
