<svg width="69" height="15" viewBox="0 0 69 15" fill="none" xmlns="http://www.w3.org/2000/svg">
<path d="M5.81491 13.5707V13.9426H0V13.5707H0.481223C1.0415 13.5707 1.44848 13.4066 1.70218 13.0783C1.86233 12.864 1.94235 12.348 1.94222 11.5303V2.72485C1.94222 2.03485 1.89891 1.57921 1.81229 1.35793C1.72798 1.17151 1.58334 1.01924 1.4019 0.925873C1.12039 0.768225 0.803538 0.685196 0.481223 0.684617H0V0.312683H5.81491V0.684617H5.32445C4.77046 0.684617 4.36675 0.848741 4.1133 1.17699C3.94648 1.39157 3.86307 1.90752 3.86307 2.72485V11.5303C3.86307 12.2204 3.90644 12.676 3.99319 12.897C4.07943 13.0856 4.22796 13.2383 4.41359 13.3294C4.69123 13.4878 5.00513 13.571 5.32445 13.5707H5.81491Z" fill="white"/>
<path d="M5.02026 0.312683H8.70335L16.9996 10.5351V2.67459C16.9996 1.83689 16.9062 1.31424 16.7194 1.10662C16.4726 0.825414 16.0823 0.684746 15.5485 0.684617H15.078V0.312683H19.8031V0.684617H19.3218C18.7478 0.684617 18.3408 0.8586 18.1009 1.20656C17.9539 1.42114 17.8805 1.91029 17.8807 2.67401V14.1632H17.5203L8.57265 3.18687V11.58C8.57265 12.4176 8.66248 12.9403 8.84214 13.1479C9.09571 13.4293 9.48608 13.57 10.0132 13.5701H10.4945V13.9421H5.77078V13.5701H6.24122C6.82177 13.5701 7.23241 13.3958 7.47315 13.0472C7.61983 12.833 7.69317 12.3439 7.69317 11.58V2.10218C7.42683 1.76706 7.12668 1.46051 6.79752 1.18743C6.52114 1.00577 6.21915 0.866839 5.90167 0.775282C5.61371 0.704349 5.31733 0.673965 5.02103 0.685004L5.02026 0.312683Z" fill="white"/>
<path d="M26.5654 0.000993468C28.327 0.000993468 29.8534 0.672821 31.1445 2.01648C32.4356 3.36014 33.0811 5.03707 33.0811 7.04727C33.0811 9.11778 32.4306 10.8365 31.1295 12.2035C30.5238 12.8469 29.7945 13.3604 28.9856 13.7128C28.1768 14.0653 27.3052 14.2494 26.4235 14.2541C25.5419 14.2588 24.6684 14.084 23.8559 13.7402C23.0433 13.3964 22.3087 12.8907 21.6962 12.2538C20.4257 10.9207 19.7905 9.19524 19.7905 7.07742C19.7905 4.91309 20.5245 3.14749 21.9924 1.78064C23.2266 0.610058 24.8681 -0.0287423 26.5654 0.000993468ZM26.3754 0.735584C25.8165 0.716858 25.2611 0.829852 24.7535 1.06551C24.246 1.30117 23.8005 1.65294 23.4526 2.09264C22.5384 3.21837 22.0814 4.86682 22.0815 7.03799C22.0815 9.2629 22.5553 10.9749 23.5029 12.1741C23.8418 12.6143 24.2797 12.9676 24.7806 13.2052C25.2816 13.4429 25.8314 13.5581 26.3852 13.5414C26.9906 13.5523 27.5904 13.4228 28.1379 13.1631C28.6854 12.9033 29.1659 12.5202 29.542 12.0436C30.3728 11.0451 30.7882 9.47039 30.7882 7.31945C30.7882 4.9868 30.331 3.24788 29.4167 2.1027C28.6836 1.1909 27.6697 0.73494 26.375 0.734811L26.3754 0.735584Z" fill="white"/>
<path d="M52.0328 0.312683V0.684617C51.7342 0.671816 51.4376 0.73759 51.1721 0.875418C50.9044 1.05497 50.6873 1.30078 50.5417 1.58913C50.2886 2.13143 50.0777 2.69263 49.9109 3.26767L46.1276 14.2541H45.7276L42.6347 5.53949L39.562 14.2541H39.2018L35.1682 2.93595C34.8682 2.09168 34.678 1.59255 34.5977 1.43854C34.4777 1.19779 34.2874 0.999608 34.0521 0.870585C33.7599 0.733287 33.4388 0.669463 33.1165 0.684617V0.312683H38.1404V0.684617H37.9002C37.6099 0.664628 37.3222 0.75027 37.0896 0.925873C37.0021 0.995418 36.9313 1.084 36.8827 1.18495C36.8342 1.2859 36.809 1.39659 36.8092 1.50871C36.8092 1.7434 36.956 2.2828 37.2498 3.12694L39.9221 10.7762L42.1742 4.2729L41.7739 3.12694L41.4536 2.21237C41.3266 1.90246 41.1691 1.60611 40.9833 1.32777C40.8973 1.20151 40.7887 1.09243 40.663 1.0061C40.5107 0.893332 40.3419 0.805149 40.1625 0.744739C39.966 0.696849 39.7638 0.676615 39.5618 0.684617V0.312683H44.8466V0.684617H44.4858C44.1919 0.659417 43.8991 0.745465 43.6651 0.925873C43.5776 1.00965 43.5091 1.11134 43.4642 1.22405C43.4194 1.33676 43.3992 1.45784 43.405 1.57908C43.405 1.92086 43.5551 2.51723 43.8554 3.3682L46.4577 10.7762L49.0401 3.26767C49.3336 2.43707 49.4805 1.8608 49.4807 1.53887C49.48 1.38284 49.4291 1.23123 49.3356 1.10662C49.2451 0.978187 49.1179 0.880426 48.9708 0.826316C48.651 0.722407 48.3157 0.674796 47.9797 0.685585V0.312683H52.0328Z" fill="white"/>
<path d="M58.2745 9.37919H53.0196L52.0989 11.5304C51.9143 11.9015 51.799 12.3035 51.7586 12.7164C51.7615 12.8245 51.7897 12.9305 51.8409 13.0257C51.8922 13.1209 51.9651 13.2026 52.0536 13.2642C52.2504 13.4216 52.6757 13.5238 53.3297 13.5708V13.9427H49.0564V13.5708C49.6233 13.4703 49.9903 13.3396 50.1572 13.1788C50.4973 12.8566 50.8744 12.2032 51.2885 11.2186L56.0622 0.000976562H56.4126L61.1363 11.3394C61.5162 12.2509 61.8615 12.8423 62.172 13.1134C62.5412 13.4066 62.9973 13.5676 63.4679 13.5708V13.9427H58.1142V13.5708C58.6543 13.544 59.0196 13.4538 59.21 13.3002C59.2982 13.2353 59.37 13.1506 59.4196 13.0528C59.4692 12.955 59.4952 12.8468 59.4955 12.737C59.4955 12.4427 59.3619 11.9771 59.0949 11.3402L58.2745 9.37919ZM57.9941 8.63532L55.6921 3.12685L53.3299 8.63513L57.9941 8.63532Z" fill="white"/>
<path d="M69.0001 13.5707V13.9426H63.1848V13.5707H63.666C64.2266 13.5707 64.6336 13.4066 64.887 13.0783C65.0472 12.864 65.1272 12.348 65.1272 11.5303V2.72485C65.1272 2.03485 65.0839 1.57921 64.9973 1.35793C64.9129 1.17162 64.7684 1.01938 64.5871 0.925873C64.3054 0.768241 63.9885 0.685215 63.666 0.684617H63.1848V0.312683H69.0001V0.684617H68.5089C67.955 0.684617 67.5514 0.848741 67.2979 1.17699C67.1311 1.39157 67.0477 1.90752 67.0477 2.72485V11.5303C67.0477 12.2204 67.0909 12.676 67.1774 12.897C67.2638 13.0856 67.4123 13.2383 67.598 13.3294C67.8756 13.4878 68.1894 13.571 68.5087 13.5707H69.0001Z" fill="white"/>
</svg>
